<svg xmlns="http://www.w3.org/2000/svg" width="384pt" height="384pt" viewBox="0 0 384 384" version="1.1" class="iconadda">
<g>
<g id="QA_free_icon_X5216Ce-0"><path style=" stroke:none;fill-rule:nonzero;fill:#bb7c63;fill-opacity:1;" d="M 257.421875 36.128906 L 21.257812 36.128906 C 11.597656 36.128906 3.765625 43.960938 3.765625 53.621094 L 3.765625 366.507812 C 3.765625 376.167969 11.597656 384 21.257812 384 L 257.421875 384 C 267.082031 384 274.914062 376.167969 274.914062 366.507812 L 274.910156 53.621094 C 274.910156 43.960938 267.078125 36.128906 257.417969 36.128906 Z M 257.421875 36.128906 " />
</g><g id="QA_free_icon_X5216Ce-1"><path style=" stroke:none;fill-rule:nonzero;fill:#ab6a52;fill-opacity:1;" d="M 27.71875 366.507812 L 27.71875 53.621094 C 27.71875 43.960938 35.550781 36.128906 45.210938 36.128906 L 21.257812 36.128906 C 11.597656 36.128906 3.765625 43.960938 3.765625 53.621094 L 3.765625 366.507812 C 3.765625 376.167969 11.597656 384 21.257812 384 L 45.210938 384 C 35.550781 384 27.71875 376.167969 27.71875 366.507812 Z M 27.71875 366.507812 " />
</g><g id="QA_free_icon_X5216Ce-2"><path style=" stroke:none;fill-rule:nonzero;fill:#deebfb;fill-opacity:1;" d="M 246.027344 71.296875 L 32.648438 71.296875 C 29.496094 71.296875 26.945312 73.847656 26.945312 76.996094 L 26.945312 355.117188 C 26.945312 358.265625 29.5 360.820312 32.648438 360.820312 L 246.03125 360.820312 C 249.179688 360.820312 251.734375 358.265625 251.734375 355.117188 L 251.730469 77 C 251.730469 73.851562 249.175781 71.296875 246.027344 71.296875 Z M 246.027344 71.296875 " />
</g><g id="QA_free_icon_X5216Ce-3"><path style=" stroke:none;fill-rule:nonzero;fill:#b1dbfc;fill-opacity:1;" d="M 50.171875 355.117188 L 50.171875 77 C 50.171875 73.851562 52.726562 71.296875 55.875 71.296875 L 32.648438 71.296875 C 29.496094 71.296875 26.945312 73.847656 26.945312 77 L 26.945312 355.117188 C 26.945312 358.265625 29.5 360.820312 32.648438 360.820312 L 55.875 360.820312 C 52.722656 360.820312 50.171875 358.265625 50.171875 355.117188 Z M 152.289062 25.496094 L 152.289062 9.273438 C 152.289062 4.171875 148.117188 0 143.019531 0 L 135.660156 0 C 130.5625 0 126.386719 4.171875 126.386719 9.273438 L 126.386719 25.5 Z M 152.289062 25.496094 " />
</g><g id="QA_free_icon_X5216Ce-4"><path style=" stroke:none;fill-rule:nonzero;fill:#8bc9ff;fill-opacity:1;" d="M 145.8125 0.4375 C 144.910156 0.148438 143.96875 0 143.019531 0 L 135.660156 0 C 130.5625 0 126.386719 4.171875 126.386719 9.273438 L 126.386719 25.5 L 139.339844 25.5 L 139.339844 9.273438 C 139.339844 5.148438 142.070312 1.632812 145.816406 0.4375 Z M 145.8125 0.4375 " />
</g><g id="QA_free_icon_X5216Ce-5"><path style=" stroke:none;fill-rule:nonzero;fill:#695c68;fill-opacity:1;" d="M 170.863281 96.019531 L 107.8125 96.019531 C 99.800781 96.019531 93.285156 89.503906 93.285156 81.492188 L 93.285156 43.671875 C 93.285156 40.472656 95.878906 37.878906 99.082031 37.878906 C 102.28125 37.878906 104.875 40.472656 104.875 43.671875 L 104.875 81.492188 C 104.875 83.085938 106.21875 84.429688 107.8125 84.429688 L 170.863281 84.429688 C 172.453125 84.429688 173.800781 83.085938 173.800781 81.492188 L 173.800781 43.671875 C 173.800781 40.472656 176.394531 37.878906 179.59375 37.878906 C 182.792969 37.878906 185.390625 40.472656 185.390625 43.671875 L 185.390625 81.492188 C 185.394531 89.503906 178.875 96.019531 170.867188 96.019531 Z M 170.863281 96.019531 " />
</g><g id="QA_free_icon_X5216Ce-6"><path style=" stroke:none;fill-rule:nonzero;fill:#deebfb;fill-opacity:1;" d="M 211.148438 23.179688 L 67.53125 23.179688 C 62.433594 23.179688 58.257812 27.351562 58.257812 32.453125 L 58.257812 39.8125 C 58.257812 44.910156 62.429688 49.085938 67.53125 49.085938 L 211.148438 49.085938 C 216.246094 49.085938 220.421875 44.914062 220.421875 39.8125 L 220.421875 32.453125 C 220.421875 27.355469 216.25 23.179688 211.148438 23.179688 Z M 211.148438 23.179688 " />
</g><g id="QA_free_icon_X5216Ce-7"><path style=" stroke:none;fill-rule:nonzero;fill:#b1dbfc;fill-opacity:1;" d="M 211.148438 36.128906 L 67.53125 36.128906 C 63.40625 36.128906 59.890625 33.398438 58.695312 29.652344 L 58.695312 29.65625 C 58.40625 30.558594 58.257812 31.503906 58.257812 32.449219 L 58.257812 39.808594 C 58.257812 44.90625 62.429688 49.082031 67.53125 49.082031 L 211.148438 49.082031 C 216.246094 49.082031 220.421875 44.910156 220.421875 39.808594 L 220.421875 32.449219 C 220.421875 31.476562 220.265625 30.535156 219.984375 29.652344 C 218.792969 33.394531 215.273438 36.128906 211.148438 36.128906 Z M 211.148438 36.128906 " />
</g><g id="QA_free_icon_X5216Ce-8"><path style=" stroke:none;fill-rule:nonzero;fill:#60b8fe;fill-opacity:1;" d="M 75.214844 239.308594 C 73.019531 235.074219 67.050781 235.183594 64.910156 239.308594 L 46.597656 274.875 C 45.132812 277.71875 46.25 281.214844 49.097656 282.679688 C 51.941406 284.144531 55.4375 283.023438 56.902344 280.179688 L 61.167969 271.894531 L 78.957031 271.894531 L 83.222656 280.179688 C 84.6875 283.023438 88.183594 284.144531 91.027344 282.679688 C 93.875 281.214844 94.992188 277.71875 93.527344 274.875 Z M 67.136719 260.304688 L 70.0625 254.621094 L 72.988281 260.304688 Z M 67.136719 260.304688 " />
</g><g id="QA_free_icon_X5216Ce-9"><path style=" stroke:none;fill-rule:nonzero;fill:#fe6460;fill-opacity:1;" d="M 77.742188 171.269531 L 79.355469 173.945312 C 81.03125 176.625 84.546875 177.46875 87.257812 175.835938 C 89.96875 174.207031 90.867188 170.703125 89.285156 167.96875 L 87.871094 165.621094 C 93.425781 160.695312 96.933594 153.511719 96.933594 145.523438 C 96.933594 130.707031 84.878906 118.652344 70.0625 118.652344 C 55.246094 118.652344 43.191406 130.707031 43.191406 145.523438 C 43.191406 163.410156 60.476562 176.429688 77.738281 171.269531 Z M 70.0625 130.242188 C 78.488281 130.242188 85.34375 137.097656 85.34375 145.523438 C 85.34375 149.285156 83.972656 152.726562 81.710938 155.390625 L 79.566406 151.828125 C 77.890625 149.144531 74.375 148.304688 71.664062 149.933594 C 68.957031 151.566406 68.054688 155.066406 69.636719 157.804688 L 71.402344 160.734375 C 62.335938 161.527344 54.78125 154.347656 54.78125 145.519531 C 54.78125 137.09375 61.636719 130.238281 70.0625 130.238281 Z M 222.078125 124.445312 L 119.199219 124.445312 C 116.457031 124.445312 114.234375 126.667969 114.234375 129.410156 L 114.234375 208.605469 C 114.234375 211.34375 116.457031 213.566406 119.199219 213.566406 L 222.078125 213.566406 C 223.394531 213.566406 224.65625 213.042969 225.585938 212.113281 C 226.515625 211.183594 227.039062 209.921875 227.039062 208.605469 L 227.039062 129.410156 C 227.039062 128.09375 226.515625 126.828125 225.585938 125.898438 C 224.65625 124.96875 223.394531 124.445312 222.078125 124.445312 Z M 222.078125 124.445312 " />
</g><g id="QA_free_icon_X5216Ce-10"><path style=" stroke:none;fill-rule:nonzero;fill:#fe4656;fill-opacity:1;" d="M 143.316406 208.605469 L 143.316406 129.410156 C 143.316406 126.667969 145.539062 124.445312 148.28125 124.445312 L 119.199219 124.445312 C 116.457031 124.445312 114.234375 126.667969 114.234375 129.410156 L 114.234375 208.605469 C 114.234375 211.34375 116.457031 213.566406 119.199219 213.566406 L 148.28125 213.566406 C 145.539062 213.566406 143.316406 211.34375 143.316406 208.605469 Z M 143.316406 208.605469 " />
</g><g id="QA_free_icon_X5216Ce-11"><path style=" stroke:none;fill-rule:nonzero;fill:#60b8fe;fill-opacity:1;" d="M 222.078125 241.960938 L 119.199219 241.960938 C 116.457031 241.960938 114.234375 244.183594 114.234375 246.925781 L 114.234375 326.433594 L 114.234375 326.429688 C 114.234375 329.171875 116.457031 331.394531 119.199219 331.394531 L 220.835938 331.394531 L 227.484375 299.445312 L 227.480469 299.445312 C 225.570312 298.128906 224.992188 295.566406 226.152344 293.558594 L 227.039062 290.117188 L 227.039062 246.921875 C 227.039062 244.183594 224.816406 241.960938 222.078125 241.960938 Z M 222.078125 241.960938 " />
</g><g id="QA_free_icon_X5216Ce-12"><path style=" stroke:none;fill-rule:nonzero;fill:#22a8fe;fill-opacity:1;" d="M 143.316406 326.429688 L 143.316406 246.925781 C 143.316406 244.183594 145.539062 241.960938 148.28125 241.960938 L 119.199219 241.960938 C 116.457031 241.960938 114.234375 244.183594 114.234375 246.925781 L 114.234375 326.433594 L 114.234375 326.429688 C 114.234375 329.171875 116.457031 331.394531 119.199219 331.394531 L 148.28125 331.394531 C 145.539062 331.394531 143.316406 329.171875 143.316406 326.429688 Z M 143.316406 326.429688 " />
</g><g id="QA_free_icon_X5216Ce-13"><path style=" stroke:none;fill-rule:nonzero;fill:#fb2d39;fill-opacity:1;" d="M 202.667969 153.0625 L 138.605469 153.0625 C 135.40625 153.0625 132.8125 150.464844 132.8125 147.265625 C 132.8125 144.066406 135.40625 141.472656 138.605469 141.472656 L 202.667969 141.472656 C 205.871094 141.472656 208.464844 144.066406 208.464844 147.265625 C 208.464844 150.464844 205.871094 153.0625 202.667969 153.0625 Z M 202.667969 174.800781 L 138.605469 174.800781 C 135.40625 174.800781 132.8125 172.207031 132.8125 169.007812 C 132.8125 165.804688 135.40625 163.210938 138.605469 163.210938 L 202.667969 163.210938 C 205.871094 163.210938 208.464844 165.804688 208.464844 169.007812 C 208.464844 172.207031 205.871094 174.800781 202.667969 174.800781 Z M 170.636719 196.542969 L 138.605469 196.542969 C 135.40625 196.542969 132.8125 193.945312 132.8125 190.746094 C 132.8125 187.546875 135.40625 184.953125 138.605469 184.953125 L 170.636719 184.953125 C 173.835938 184.953125 176.429688 187.546875 176.429688 190.746094 C 176.429688 193.945312 173.835938 196.542969 170.636719 196.542969 Z M 170.636719 196.542969 " />
</g><g id="QA_free_icon_X5216Ce-14"><path style=" stroke:none;fill-rule:nonzero;fill:#0193fb;fill-opacity:1;" d="M 202.667969 270.730469 L 138.605469 270.730469 C 135.40625 270.730469 132.8125 268.136719 132.8125 264.9375 C 132.8125 261.738281 135.40625 259.144531 138.605469 259.144531 L 202.667969 259.144531 C 205.871094 259.144531 208.464844 261.738281 208.464844 264.9375 C 208.464844 268.136719 205.871094 270.730469 202.667969 270.730469 Z M 202.667969 292.472656 L 138.605469 292.472656 C 135.40625 292.472656 132.8125 289.878906 132.8125 286.679688 C 132.8125 283.476562 135.40625 280.882812 138.605469 280.882812 L 202.667969 280.882812 C 205.871094 280.882812 208.464844 283.476562 208.464844 286.679688 C 208.464844 289.878906 205.871094 292.472656 202.667969 292.472656 Z M 170.636719 314.214844 L 138.605469 314.214844 C 135.40625 314.214844 132.8125 311.617188 132.8125 308.417969 C 132.8125 305.21875 135.40625 302.625 138.605469 302.625 L 170.636719 302.625 C 173.835938 302.625 176.429688 305.21875 176.429688 308.417969 C 176.429688 311.617188 173.835938 314.214844 170.636719 314.214844 Z M 170.636719 314.214844 " />
</g><g id="QA_free_icon_X5216Ce-15"><path style=" stroke:none;fill-rule:nonzero;fill:#4e67d2;fill-opacity:1;" d="M 334.953125 227.695312 C 333.621094 226.925781 332.648438 225.660156 332.25 224.175781 C 331.855469 222.691406 332.0625 221.109375 332.832031 219.78125 L 367.820312 159.175781 C 370.574219 154.402344 366.257812 145.902344 357.652344 140.933594 C 354.878906 139.335938 353.929688 135.792969 355.53125 133.019531 C 357.128906 130.25 360.675781 129.300781 363.445312 130.898438 C 377.636719 139.089844 384.089844 154.171875 377.855469 164.972656 L 342.867188 225.578125 L 342.867188 225.574219 C 341.265625 228.347656 337.722656 229.296875 334.953125 227.695312 Z M 334.953125 227.695312 " />
</g><g id="QA_free_icon_X5216Ce-16"><path style=" stroke:none;fill-rule:nonzero;fill:#deebfb;fill-opacity:1;" d="M 364.066406 84.628906 C 358.222656 81.253906 350.75 83.257812 347.375 89.101562 L 339.167969 103.25 L 339.167969 103.246094 C 339.949219 103.402344 340.699219 103.6875 341.390625 104.085938 L 358.488281 113.957031 C 359.179688 114.355469 359.800781 114.867188 360.328125 115.464844 L 368.535156 101.316406 C 371.910156 95.472656 369.90625 88 364.0625 84.625 Z M 364.066406 84.628906 " />
</g><g id="QA_free_icon_X5216Ce-17"><path style=" stroke:none;fill-rule:nonzero;fill:#b1dbfc;fill-opacity:1;" d="M 356.933594 96.824219 C 359.527344 92.332031 364.539062 90.121094 369.375 90.867188 L 369.375 90.863281 C 368.378906 88.234375 366.503906 86.03125 364.066406 84.625 C 358.222656 81.25 350.75 83.253906 347.375 89.097656 L 339.167969 103.246094 C 339.949219 103.402344 340.699219 103.6875 341.390625 104.085938 L 349.875 108.984375 Z M 356.933594 96.824219 " />
</g><g id="QA_free_icon_X5216Ce-18"><path style=" stroke:none;fill-rule:nonzero;fill:#6b7ed7;fill-opacity:1;" d="M 247.226562 311 L 226.4375 298.996094 L 226.4375 299 C 226.335938 298.9375 226.234375 298.871094 226.132812 298.800781 L 215.433594 336.9375 C 214.691406 339.574219 217.957031 341.460938 219.875 339.5 L 247.550781 311.164062 L 247.550781 311.167969 C 247.441406 311.117188 247.332031 311.0625 247.226562 311 Z M 247.226562 311 " />
</g><g id="QA_free_icon_X5216Ce-19"><path style=" stroke:none;fill-rule:nonzero;fill:#6b7ed7;fill-opacity:1;" d="M 247.226562 311 L 226.4375 298.996094 L 226.4375 299 C 226.335938 298.9375 226.234375 298.871094 226.132812 298.800781 L 215.433594 336.9375 C 214.691406 339.574219 217.957031 341.460938 219.875 339.5 L 247.550781 311.164062 L 247.550781 311.167969 C 247.441406 311.117188 247.332031 311.0625 247.226562 311 Z M 247.226562 311 " />
</g><g id="QA_free_icon_X5216Ce-20"><path style=" stroke:none;fill-rule:nonzero;fill:#4e67d2;fill-opacity:1;" d="M 247.226562 311 L 226.4375 298.996094 L 226.4375 299 C 226.335938 298.9375 226.234375 298.871094 226.132812 298.800781 L 215.433594 336.9375 C 214.691406 339.574219 217.960938 341.460938 219.875 339.5 L 225.015625 334.238281 L 229.984375 316.527344 C 230.867188 313.375 234.488281 311.902344 237.324219 313.539062 C 239.816406 314.980469 242.234375 316.371094 242.382812 316.457031 L 247.550781 311.164062 L 247.550781 311.167969 C 247.441406 311.117188 247.332031 311.0625 247.226562 311 Z M 247.226562 311 " />
</g><g id="QA_free_icon_X5216Ce-21"><path style=" stroke:none;fill-rule:nonzero;fill:#4e67d2;fill-opacity:1;" d="M 304.265625 220.738281 L 276.507812 204.714844 C 276.4375 204.675781 276.375 204.628906 276.308594 204.585938 L 224.65625 293.570312 L 224.65625 293.566406 C 224.066406 294.589844 223.90625 295.804688 224.210938 296.941406 C 224.515625 298.082031 225.261719 299.054688 226.285156 299.644531 L 246.746094 311.457031 C 247.765625 312.046875 248.980469 312.207031 250.121094 311.902344 C 251.261719 311.597656 252.234375 310.851562 252.824219 309.828125 L 304.476562 220.84375 C 304.40625 220.808594 304.335938 220.777344 304.265625 220.734375 Z M 304.265625 220.738281 " />
</g><g id="QA_free_icon_X5216Ce-22"><path style=" stroke:none;fill-rule:nonzero;fill:#4e67d2;fill-opacity:1;" d="M 304.265625 220.738281 L 276.507812 204.714844 C 276.4375 204.675781 276.375 204.628906 276.308594 204.585938 L 224.65625 293.570312 L 224.65625 293.566406 C 224.066406 294.589844 223.90625 295.804688 224.210938 296.941406 C 224.515625 298.082031 225.261719 299.054688 226.285156 299.644531 L 246.746094 311.457031 C 247.765625 312.046875 248.980469 312.207031 250.121094 311.902344 C 251.261719 311.597656 252.234375 310.851562 252.824219 309.828125 L 304.476562 220.84375 C 304.40625 220.808594 304.335938 220.777344 304.265625 220.734375 Z M 304.265625 220.738281 " />
</g><g id="QA_free_icon_X5216Ce-23"><path style=" stroke:none;fill-rule:nonzero;fill:#314ccd;fill-opacity:1;" d="M 237.890625 301.613281 L 289.671875 212.3125 L 276.507812 204.714844 C 276.4375 204.675781 276.375 204.628906 276.308594 204.585938 L 224.65625 293.570312 L 224.652344 293.566406 C 224.0625 294.589844 223.902344 295.804688 224.210938 296.941406 C 224.515625 298.082031 225.261719 299.054688 226.285156 299.644531 L 237.636719 306.199219 C 236.949219 304.949219 236.988281 303.179688 237.890625 301.613281 Z M 237.890625 301.613281 " />
</g><g id="QA_free_icon_X5216Ce-24"><path style=" stroke:none;fill-rule:nonzero;fill:#6b7ed7;fill-opacity:1;" d="M 362.09375 116.796875 C 361.523438 115.261719 360.398438 113.996094 358.980469 113.179688 L 341.882812 103.308594 C 340.464844 102.492188 338.808594 102.152344 337.191406 102.421875 C 330.769531 103.5 324.863281 107.328125 321.355469 113.40625 L 271.871094 199.113281 C 271 200.621094 270.761719 202.417969 271.214844 204.101562 C 271.664062 205.785156 272.765625 207.222656 274.277344 208.09375 L 302.035156 224.117188 L 302.035156 224.121094 C 303.542969 224.992188 305.339844 225.226562 307.023438 224.777344 C 308.707031 224.324219 310.144531 223.222656 311.015625 221.710938 L 360.5 136.003906 C 364.011719 129.925781 364.371094 122.894531 362.09375 116.796875 Z M 362.09375 116.796875 " />
</g><g id="QA_free_icon_X5216Ce-25"><path style=" stroke:none;fill-rule:nonzero;fill:#6b7ed7;fill-opacity:1;" d="M 362.09375 116.796875 C 361.523438 115.261719 360.398438 113.996094 358.980469 113.179688 L 341.882812 103.308594 C 340.464844 102.492188 338.808594 102.152344 337.191406 102.421875 C 330.769531 103.5 324.863281 107.328125 321.355469 113.40625 L 271.871094 199.113281 C 271 200.621094 270.761719 202.417969 271.214844 204.101562 C 271.664062 205.785156 272.765625 207.222656 274.277344 208.09375 L 302.035156 224.117188 L 302.035156 224.121094 C 303.542969 224.992188 305.339844 225.226562 307.023438 224.777344 C 308.707031 224.324219 310.144531 223.222656 311.015625 221.710938 L 360.5 136.003906 C 364.011719 129.925781 364.371094 122.894531 362.09375 116.796875 Z M 362.09375 116.796875 " />
</g><g id="QA_free_icon_X5216Ce-26"><path style=" stroke:none;fill-rule:nonzero;fill:#4e67d2;fill-opacity:1;" d="M 284.992188 209.410156 L 336.570312 120.074219 C 339.957031 114.203125 344.695312 109.894531 349.535156 107.726562 L 341.878906 103.308594 C 340.460938 102.492188 338.804688 102.152344 337.1875 102.421875 C 330.765625 103.5 324.859375 107.328125 321.351562 113.40625 L 271.867188 199.113281 L 271.871094 199.113281 C 271 200.625 270.761719 202.417969 271.214844 204.101562 C 271.664062 205.785156 272.765625 207.222656 274.277344 208.09375 L 283.742188 213.558594 C 283.789062 212.242188 284.199219 210.789062 284.992188 209.410156 Z M 284.992188 209.410156 " />
</g></g>
</svg>