<svg xmlns="http://www.w3.org/2000/svg" width="384pt" height="384pt" viewBox="0 0 384 384" version="1.1" class="iconadda">
<g>
<g id="Test_free_icon_zn35YA8-0"><path style=" stroke:none;fill-rule:nonzero;fill:#feece5;fill-opacity:1;" d="M 362.648438 330.664062 L 341.332031 322.75 L 320.015625 330.664062 C 320.027344 330.71875 320.042969 330.777344 320.0625 330.828125 L 328.53125 351.996094 L 341.332031 359.910156 L 354.132812 351.996094 L 362.601562 330.828125 C 362.621094 330.773438 362.640625 330.71875 362.648438 330.664062 Z M 362.648438 330.664062 " />
</g><g id="Test_free_icon_zn35YA8-1"><path style=" stroke:none;fill-rule:nonzero;fill:#f1f4f6;fill-opacity:1;" d="M 213.328125 299.441406 L 213.328125 299.4375 C 213.328125 299.007812 213.675781 298.660156 214.105469 298.660156 C 260.757812 298.660156 298.582031 260.882812 298.664062 214.25 L 298.664062 0.835938 C 298.664062 0.375 298.289062 0 297.828125 0 L 22.167969 0 C 21.707031 0 21.332031 0.375 21.332031 0.835938 L 21.332031 383.164062 C 21.332031 383.625 21.707031 384 22.167969 384 L 129.390625 384 C 175.804688 383.664062 213.328125 345.933594 213.328125 299.445312 Z M 213.328125 299.441406 " />
</g><g id="Test_free_icon_zn35YA8-2"><path style=" stroke:none;fill-rule:nonzero;fill:#deeaef;fill-opacity:1;" d="M 297.832031 0 L 267.761719 0 L 267.761719 198.796875 C 267.683594 245.429688 229.855469 283.207031 183.203125 283.207031 C 182.773438 283.207031 182.425781 283.554688 182.425781 283.984375 L 182.425781 283.988281 C 182.425781 330.480469 144.902344 368.210938 98.492188 368.542969 L 21.335938 368.542969 L 21.335938 383.160156 C 21.335938 383.621094 21.710938 383.996094 22.171875 383.996094 L 129.394531 383.996094 C 231.980469 383.996094 298.667969 311.238281 298.667969 214.246094 L 298.664062 0.835938 C 298.664062 0.613281 298.578125 0.402344 298.421875 0.242188 C 298.265625 0.0859375 298.050781 0 297.832031 0 Z M 297.832031 0 " />
</g><g id="Test_free_icon_zn35YA8-3"><path style=" stroke:none;fill-rule:nonzero;fill:#cfe2e7;fill-opacity:1;" d="M 153.542969 383.996094 L 297.828125 383.996094 C 298.289062 383.996094 298.664062 383.621094 298.664062 383.160156 L 298.664062 238.476562 C 298.621094 277.054688 191.980469 383.84375 153.542969 383.992188 Z M 153.542969 383.996094 " />
</g><g id="Test_free_icon_zn35YA8-4"><path style=" stroke:none;fill-rule:nonzero;fill:#7f78bc;fill-opacity:1;" d="M 265.828125 63.996094 L 160.839844 63.996094 C 160.375 63.996094 160 63.621094 160 63.15625 L 160 43.503906 C 160 43.039062 160.375 42.664062 160.839844 42.664062 L 265.824219 42.664062 C 266.289062 42.664062 266.664062 43.039062 266.664062 43.503906 L 266.664062 63.15625 C 266.664062 63.621094 266.289062 63.996094 265.824219 63.996094 Z M 265.828125 63.996094 " />
</g><g id="Test_free_icon_zn35YA8-5"><path style=" stroke:none;fill-rule:nonzero;fill:#86f1a7;fill-opacity:1;" d="M 116.539062 106.664062 L 54.128906 106.664062 C 53.691406 106.664062 53.335938 106.308594 53.335938 105.871094 L 53.335938 43.460938 C 53.335938 43.023438 53.691406 42.664062 54.132812 42.664062 L 116.542969 42.664062 C 116.980469 42.664062 117.339844 43.019531 117.339844 43.460938 L 117.339844 105.871094 L 117.332031 105.871094 C 117.335938 106.082031 117.25 106.28125 117.101562 106.433594 C 116.953125 106.582031 116.75 106.664062 116.539062 106.664062 Z M 116.539062 106.664062 " />
</g><g id="Test_free_icon_zn35YA8-6"><path style=" stroke:none;fill-rule:nonzero;fill:#617881;fill-opacity:1;" d="M 340.453125 381.800781 C 340.769531 382.59375 341.890625 382.59375 342.210938 381.800781 L 354.132812 351.996094 L 328.53125 351.996094 Z M 340.453125 381.800781 " />
</g><g id="Test_free_icon_zn35YA8-7"><path style=" stroke:none;fill-rule:nonzero;fill:#7f78bc;fill-opacity:1;" d="M 319.996094 330.648438 L 320.015625 330.664062 L 362.648438 330.664062 L 362.664062 330.648438 L 362.664062 160 L 319.996094 160 Z M 319.996094 330.648438 " />
</g><g id="Test_free_icon_zn35YA8-8"><path style=" stroke:none;fill-rule:nonzero;fill:#617881;fill-opacity:1;" d="M 362.664062 102.273438 C 362.664062 92.917969 355.078125 85.332031 345.722656 85.332031 L 336.9375 85.332031 C 327.582031 85.332031 319.996094 92.917969 319.996094 102.273438 L 319.996094 138.667969 L 362.660156 138.667969 L 362.660156 102.273438 Z M 362.664062 102.273438 " />
</g><g id="Test_free_icon_zn35YA8-9"><path style=" stroke:none;fill-rule:nonzero;fill:#f1f4f6;fill-opacity:1;" d="M 319.996094 138.667969 L 362.660156 138.667969 L 362.660156 160 L 319.996094 160 Z M 319.996094 138.667969 " />
</g><g id="Test_free_icon_zn35YA8-10"><path style=" stroke:none;fill-rule:nonzero;fill:#79cfdf;fill-opacity:1;" d="M 69.796875 192.050781 C 69.796875 195.25 67.203125 197.84375 64 197.84375 C 60.800781 197.84375 58.207031 195.25 58.207031 192.050781 C 58.207031 188.851562 60.800781 186.257812 64 186.257812 C 67.203125 186.257812 69.796875 188.851562 69.796875 192.050781 " />
</g><g id="Test_free_icon_zn35YA8-11"><path style=" stroke:none;fill-rule:nonzero;fill:#79cfdf;fill-opacity:1;" d="M 133.785156 192.050781 C 133.785156 195.25 131.1875 197.84375 127.988281 197.84375 C 124.789062 197.84375 122.195312 195.25 122.195312 192.050781 C 122.195312 188.851562 124.789062 186.257812 127.988281 186.257812 C 131.1875 186.257812 133.785156 188.851562 133.785156 192.050781 " />
</g><g id="Test_free_icon_zn35YA8-12"><path style=" stroke:none;fill-rule:nonzero;fill:#79cfdf;fill-opacity:1;" d="M 197.703125 192.050781 C 197.703125 195.25 195.109375 197.84375 191.90625 197.84375 C 188.707031 197.84375 186.113281 195.25 186.113281 192.050781 C 186.113281 188.851562 188.707031 186.257812 191.90625 186.257812 C 195.109375 186.257812 197.703125 188.851562 197.703125 192.050781 " />
</g><g id="Test_free_icon_zn35YA8-13"><path style=" stroke:none;fill-rule:nonzero;fill:#79cfdf;fill-opacity:1;" d="M 69.796875 256.007812 C 69.796875 259.207031 67.203125 261.800781 64 261.800781 C 60.800781 261.800781 58.207031 259.207031 58.207031 256.007812 C 58.207031 252.808594 60.800781 250.210938 64 250.210938 C 67.203125 250.210938 69.796875 252.808594 69.796875 256.007812 " />
</g><g id="Test_free_icon_zn35YA8-14"><path style=" stroke:none;fill-rule:nonzero;fill:#79cfdf;fill-opacity:1;" d="M 133.785156 256.007812 C 133.785156 259.207031 131.1875 261.800781 127.988281 261.800781 C 124.789062 261.800781 122.195312 259.207031 122.195312 256.007812 C 122.195312 252.808594 124.789062 250.210938 127.988281 250.210938 C 131.1875 250.210938 133.785156 252.808594 133.785156 256.007812 " />
</g><g id="Test_free_icon_zn35YA8-15"><path style=" stroke:none;fill-rule:nonzero;fill:#79cfdf;fill-opacity:1;" d="M 197.703125 256.007812 C 197.703125 259.207031 195.109375 261.800781 191.90625 261.800781 C 188.707031 261.800781 186.113281 259.207031 186.113281 256.007812 C 186.113281 252.808594 188.707031 250.210938 191.90625 250.210938 C 195.109375 250.210938 197.703125 252.808594 197.703125 256.007812 " />
</g><g id="Test_free_icon_zn35YA8-16"><path style=" stroke:none;fill-rule:nonzero;fill:#79cfdf;fill-opacity:1;" d="M 69.796875 319.964844 C 69.796875 323.164062 67.203125 325.757812 64 325.757812 C 60.800781 325.757812 58.207031 323.164062 58.207031 319.964844 C 58.207031 316.761719 60.800781 314.167969 64 314.167969 C 67.203125 314.167969 69.796875 316.761719 69.796875 319.964844 " />
</g><g id="Test_free_icon_zn35YA8-17"><path style=" stroke:none;fill-rule:nonzero;fill:#79cfdf;fill-opacity:1;" d="M 133.785156 319.964844 C 133.785156 323.164062 131.1875 325.757812 127.988281 325.757812 C 124.789062 325.757812 122.195312 323.164062 122.195312 319.964844 C 122.195312 316.761719 124.789062 314.167969 127.988281 314.167969 C 131.1875 314.167969 133.785156 316.761719 133.785156 319.964844 " />
</g><g id="Test_free_icon_zn35YA8-18"><path style=" stroke:none;fill-rule:nonzero;fill:#70c6da;fill-opacity:1;" d="M 197.703125 319.964844 C 197.703125 323.164062 195.109375 325.757812 191.90625 325.757812 C 188.707031 325.757812 186.113281 323.164062 186.113281 319.964844 C 186.113281 316.761719 188.707031 314.167969 191.90625 314.167969 C 195.109375 314.167969 197.703125 316.761719 197.703125 319.964844 " />
</g><g id="Test_free_icon_zn35YA8-19"><path style=" stroke:none;fill-rule:nonzero;fill:#617881;fill-opacity:1;" d="M 138.667969 155.179688 L 64 155.179688 C 60.800781 155.179688 58.207031 152.585938 58.207031 149.386719 C 58.207031 146.183594 60.800781 143.589844 64 143.589844 L 138.667969 143.589844 C 141.867188 143.589844 144.460938 146.183594 144.460938 149.386719 C 144.460938 152.585938 141.867188 155.179688 138.667969 155.179688 Z M 261.792969 170.71875 C 261.792969 169.179688 261.183594 167.707031 260.097656 166.621094 C 259.007812 165.535156 257.535156 164.921875 256 164.921875 L 64 164.921875 C 60.800781 164.921875 58.207031 167.515625 58.207031 170.71875 C 58.207031 173.917969 60.800781 176.511719 64 176.511719 L 256 176.511719 C 257.535156 176.511719 259.007812 175.902344 260.097656 174.816406 C 261.183594 173.726562 261.792969 172.253906 261.792969 170.71875 Z M 144.460938 213.386719 L 144.460938 213.382812 C 144.460938 211.847656 143.851562 210.375 142.765625 209.285156 C 141.679688 208.199219 140.203125 207.589844 138.667969 207.589844 L 64 207.589844 C 60.800781 207.589844 58.207031 210.183594 58.207031 213.382812 C 58.207031 216.585938 60.800781 219.179688 64 219.179688 L 138.667969 219.179688 C 141.867188 219.179688 144.460938 216.585938 144.460938 213.382812 Z M 261.792969 234.71875 C 261.792969 233.179688 261.183594 231.707031 260.097656 230.621094 C 259.007812 229.53125 257.535156 228.921875 256 228.921875 L 64 228.921875 C 60.800781 228.921875 58.207031 231.515625 58.207031 234.71875 C 58.207031 237.917969 60.800781 240.511719 64 240.511719 L 256 240.511719 C 257.535156 240.511719 259.007812 239.902344 260.097656 238.816406 C 261.183594 237.726562 261.792969 236.253906 261.792969 234.71875 Z M 144.460938 277.382812 C 144.460938 275.847656 143.851562 274.371094 142.765625 273.285156 C 141.679688 272.199219 140.203125 271.589844 138.667969 271.589844 L 64 271.589844 C 60.800781 271.589844 58.207031 274.183594 58.207031 277.382812 C 58.207031 280.582031 60.800781 283.175781 64 283.175781 L 138.667969 283.175781 C 141.867188 283.175781 144.460938 280.582031 144.460938 277.382812 Z M 219.609375 298.714844 C 219.609375 297.179688 219 295.707031 217.910156 294.617188 C 216.824219 293.53125 215.351562 292.921875 213.816406 292.921875 L 64 292.921875 C 60.800781 292.921875 58.207031 295.515625 58.207031 298.714844 C 58.207031 301.917969 60.800781 304.511719 64 304.511719 L 213.816406 304.511719 C 217.015625 304.511719 219.609375 301.917969 219.609375 298.714844 Z M 112.460938 192.054688 C 112.460938 190.515625 111.851562 189.042969 110.765625 187.957031 C 109.679688 186.871094 108.203125 186.257812 106.667969 186.257812 L 85.335938 186.257812 C 82.136719 186.257812 79.539062 188.855469 79.539062 192.054688 C 79.539062 195.253906 82.136719 197.847656 85.335938 197.847656 L 106.667969 197.847656 C 109.867188 197.847656 112.460938 195.253906 112.460938 192.054688 Z M 176.753906 192.054688 L 176.757812 192.054688 C 176.757812 190.515625 176.144531 189.042969 175.058594 187.957031 C 173.972656 186.871094 172.5 186.257812 170.960938 186.257812 L 149.320312 186.257812 C 146.121094 186.257812 143.527344 188.855469 143.527344 192.054688 C 143.527344 195.253906 146.121094 197.847656 149.320312 197.847656 L 170.960938 197.847656 C 174.160156 197.847656 176.757812 195.253906 176.757812 192.054688 Z M 112.460938 256.011719 C 112.460938 254.472656 111.851562 253 110.765625 251.914062 C 109.679688 250.828125 108.203125 250.214844 106.667969 250.214844 L 85.335938 250.214844 C 82.136719 250.214844 79.539062 252.808594 79.539062 256.011719 C 79.539062 259.210938 82.136719 261.804688 85.335938 261.804688 L 106.667969 261.804688 C 109.867188 261.804688 112.460938 259.210938 112.460938 256.011719 Z M 176.753906 256.011719 L 176.757812 256.011719 C 176.757812 254.472656 176.144531 253 175.058594 251.914062 C 173.972656 250.828125 172.5 250.214844 170.960938 250.214844 L 149.320312 250.214844 C 146.121094 250.214844 143.527344 252.808594 143.527344 256.011719 C 143.527344 259.210938 146.121094 261.804688 149.320312 261.804688 L 170.960938 261.804688 C 174.160156 261.804688 176.757812 259.210938 176.757812 256.011719 Z M 112.460938 319.96875 L 112.460938 319.964844 C 112.460938 318.429688 111.851562 316.957031 110.765625 315.871094 C 109.679688 314.78125 108.203125 314.171875 106.667969 314.171875 L 85.335938 314.171875 C 82.136719 314.171875 79.539062 316.765625 79.539062 319.964844 C 79.539062 323.167969 82.136719 325.761719 85.335938 325.761719 L 106.667969 325.761719 C 108.203125 325.761719 109.679688 325.152344 110.765625 324.0625 C 111.851562 322.976562 112.460938 321.503906 112.460938 319.964844 Z M 176.753906 319.96875 L 176.757812 319.964844 C 176.757812 318.429688 176.144531 316.957031 175.058594 315.871094 C 173.972656 314.78125 172.5 314.171875 170.960938 314.171875 L 149.320312 314.171875 C 146.121094 314.171875 143.527344 316.765625 143.527344 319.964844 C 143.527344 323.167969 146.121094 325.761719 149.320312 325.761719 L 170.960938 325.761719 C 172.5 325.761719 173.972656 325.152344 175.058594 324.0625 C 176.144531 322.976562 176.757812 321.503906 176.757812 319.964844 Z M 272.457031 85.332031 L 272.460938 85.328125 C 272.460938 83.792969 271.851562 82.316406 270.761719 81.230469 C 269.675781 80.144531 268.203125 79.535156 266.667969 79.535156 L 234.667969 79.535156 C 231.464844 79.535156 228.871094 82.128906 228.871094 85.328125 C 228.871094 88.527344 231.464844 91.125 234.667969 91.125 L 266.667969 91.125 C 269.867188 91.125 272.460938 88.527344 272.460938 85.328125 Z M 272.457031 106.664062 L 272.460938 106.660156 C 272.460938 105.125 271.851562 103.652344 270.761719 102.566406 C 269.675781 101.476562 268.203125 100.867188 266.667969 100.867188 L 202.667969 100.867188 C 199.46875 100.867188 196.871094 103.460938 196.871094 106.660156 C 196.871094 109.863281 199.46875 112.457031 202.667969 112.457031 L 266.667969 112.457031 C 269.867188 112.457031 272.460938 109.863281 272.460938 106.660156 Z M 272.457031 106.664062 " />
</g><g id="Test_free_icon_zn35YA8-20"><path style=" stroke:none;fill-rule:nonzero;fill:#46595a;fill-opacity:1;" d="M 267.757812 91.019531 C 270.488281 90.492188 272.457031 88.105469 272.457031 85.328125 C 272.457031 82.550781 270.488281 80.164062 267.757812 79.636719 Z M 176.757812 319.964844 C 176.757812 318.796875 176.414062 317.710938 175.820312 316.804688 L 175.816406 316.804688 C 174.527344 319.871094 173.054688 322.855469 171.410156 325.746094 C 174.425781 325.511719 176.757812 322.992188 176.757812 319.964844 Z M 267.757812 100.972656 L 267.757812 112.355469 L 267.757812 112.351562 C 270.488281 111.828125 272.457031 109.441406 272.457031 106.660156 C 272.457031 103.882812 270.488281 101.496094 267.757812 100.972656 Z M 261.792969 234.71875 C 261.792969 233.660156 261.507812 232.664062 261.011719 231.808594 C 259.746094 234.773438 258.308594 237.664062 256.710938 240.46875 C 259.613281 240.109375 261.792969 237.640625 261.792969 234.71875 Z M 219.609375 298.714844 C 219.609375 297.179688 219 295.707031 217.910156 294.617188 C 216.824219 293.53125 215.351562 292.921875 213.816406 292.921875 L 181.957031 292.921875 C 181.546875 296.828125 180.863281 300.699219 179.914062 304.511719 L 213.816406 304.511719 C 217.015625 304.511719 219.609375 301.917969 219.609375 298.714844 Z M 219.609375 298.714844 " />
</g><g id="Test_free_icon_zn35YA8-21"><path style=" stroke:none;fill-rule:nonzero;fill:#6a61b2;fill-opacity:1;" d="M 341.332031 315.125 C 338.128906 315.125 335.535156 312.53125 335.535156 309.332031 L 335.535156 181.332031 C 335.535156 178.132812 338.128906 175.539062 341.332031 175.539062 C 344.53125 175.539062 347.125 178.132812 347.125 181.332031 L 347.125 309.332031 C 347.125 310.867188 346.515625 312.339844 345.429688 313.429688 C 344.34375 314.515625 342.867188 315.125 341.332031 315.125 Z M 341.332031 315.125 " />
</g><g id="Test_free_icon_zn35YA8-22"><path style=" stroke:none;fill-rule:nonzero;fill:#f1f4f6;fill-opacity:1;" d="M 255.996094 341.328125 C 228.675781 368.648438 191.621094 384 152.984375 384 L 128.769531 384 C 175.46875 384 213.324219 346.140625 213.324219 299.441406 L 213.324219 299.4375 C 213.324219 299.007812 213.671875 298.660156 214.101562 298.660156 C 260.800781 298.660156 298.660156 260.800781 298.660156 214.101562 L 298.660156 238.316406 L 298.664062 238.316406 C 298.664062 276.953125 283.316406 314.007812 255.996094 341.328125 Z M 255.996094 341.328125 " />
</g></g>
</svg>