<svg xmlns="http://www.w3.org/2000/svg" width="384pt" height="384pt" viewBox="0 0 384 384" version="1.1" class="iconadda">
<g>
<g id="Id_Card_free_icon_lB46UBE-0"><path style=" stroke:none;fill-rule:nonzero;fill:#fdc165;fill-opacity:1;" d="M 359.625 364.78125 L 24.375 364.78125 C 14.019531 364.78125 5.625 356.386719 5.625 346.03125 L 5.625 120.90625 C 5.625 110.550781 14.019531 102.15625 24.375 102.15625 L 359.625 102.15625 C 369.980469 102.15625 378.375 110.550781 378.375 120.90625 L 378.375 346.03125 C 378.375 356.386719 369.980469 364.78125 359.625 364.78125 Z M 359.625 364.78125 " />
</g><g id="Id_Card_free_icon_lB46UBE-1"><path style=" stroke:none;fill-rule:nonzero;fill:#fcb341;fill-opacity:1;" d="M 359.625 102.15625 L 337.125 102.15625 C 347.480469 102.15625 355.875 110.550781 355.875 120.90625 L 355.875 346.03125 C 355.875 356.386719 347.480469 364.78125 337.125 364.78125 L 359.625 364.78125 C 369.980469 364.78125 378.375 356.386719 378.375 346.03125 L 378.375 120.90625 C 378.375 110.550781 369.980469 102.15625 359.625 102.15625 Z M 359.625 102.15625 " />
</g><g id="Id_Card_free_icon_lB46UBE-2"><path style=" stroke:none;fill-rule:nonzero;fill:#e5edfa;fill-opacity:1;" d="M 182.351562 342.121094 C 186.585938 342.121094 190.019531 338.6875 190.019531 334.453125 L 190.015625 146.855469 C 190.015625 142.621094 186.582031 139.1875 182.347656 139.1875 L 43.257812 139.191406 C 39.023438 139.191406 35.589844 142.625 35.589844 146.859375 L 35.589844 334.460938 C 35.589844 338.695312 39.023438 342.128906 43.257812 342.128906 L 182.351562 342.128906 Z M 182.351562 342.121094 " />
</g><g id="Id_Card_free_icon_lB46UBE-3"><path style=" stroke:none;fill-rule:nonzero;fill:#5a5a5b;fill-opacity:1;" d="M 230.054688 139.191406 L 214.453125 139.191406 L 193.617188 132.863281 L 169.539062 139.191406 L 153.9375 139.191406 C 148.292969 139.191406 143.71875 134.617188 143.71875 128.972656 C 143.71875 123.328125 148.292969 118.753906 153.9375 118.753906 L 230.050781 118.753906 C 235.695312 118.753906 240.269531 123.328125 240.269531 128.972656 C 240.269531 134.617188 235.695312 139.191406 230.050781 139.191406 Z M 348.410156 199.074219 L 224.957031 199.074219 C 221.851562 199.074219 219.332031 196.554688 219.332031 193.449219 C 219.332031 190.34375 221.851562 187.824219 224.957031 187.824219 L 348.410156 187.824219 C 351.515625 187.824219 354.035156 190.34375 354.035156 193.449219 C 354.035156 196.554688 351.515625 199.074219 348.410156 199.074219 Z M 348.410156 248.984375 L 224.957031 248.984375 C 221.851562 248.984375 219.332031 246.464844 219.332031 243.359375 C 219.332031 240.253906 221.851562 237.734375 224.957031 237.734375 L 348.410156 237.734375 C 351.515625 237.734375 354.035156 240.253906 354.035156 243.359375 C 354.035156 246.464844 351.515625 248.984375 348.410156 248.984375 Z M 348.410156 298.898438 L 224.957031 298.898438 C 221.851562 298.898438 219.332031 296.378906 219.332031 293.273438 C 219.332031 290.167969 221.851562 287.648438 224.957031 287.648438 L 348.410156 287.648438 C 351.515625 287.648438 354.035156 290.167969 354.035156 293.273438 C 354.035156 296.378906 351.515625 298.898438 348.410156 298.898438 Z M 348.410156 298.898438 " />
</g><g id="Id_Card_free_icon_lB46UBE-4"><path style=" stroke:none;fill-rule:nonzero;fill:#fdc165;fill-opacity:1;" d="M 147.609375 283.425781 L 126.128906 283.425781 C 125.78125 290.476562 119.957031 296.089844 112.816406 296.089844 C 105.679688 296.089844 99.851562 290.476562 99.503906 283.425781 L 78.023438 283.425781 C 71.527344 283.425781 66.261719 288.691406 66.261719 295.1875 L 66.261719 320.6875 L 79.925781 320.6875 L 85.550781 316.03125 L 140.085938 316.03125 L 145.710938 320.6875 L 159.375 320.6875 L 159.375 295.1875 C 159.375 288.691406 154.109375 283.425781 147.613281 283.425781 Z M 147.609375 283.425781 " />
</g><g id="Id_Card_free_icon_lB46UBE-5"><path style=" stroke:none;fill-rule:nonzero;fill:#feceb0;fill-opacity:1;" d="M 75.25 218.117188 C 74.609375 222.023438 74.746094 223.25 74.746094 237.753906 C 74.746094 258.703125 91.730469 275.6875 112.679688 275.6875 L 112.9375 275.6875 C 133.886719 275.6875 150.871094 258.703125 150.871094 237.753906 C 150.871094 223.347656 151.011719 222.039062 150.367188 218.117188 Z M 75.25 218.117188 " />
</g><g id="Id_Card_free_icon_lB46UBE-6"><path style=" stroke:none;fill-rule:nonzero;fill:#feb09e;fill-opacity:1;" d="M 74.746094 224.308594 C 74.746094 222.199219 74.921875 220.132812 75.25 218.117188 C 66.910156 218.117188 61.808594 224.363281 61.808594 230.996094 L 61.808594 231.074219 C 61.808594 237.644531 66.832031 243.953125 75.253906 243.953125 C 74.597656 239.960938 74.746094 238.542969 74.746094 224.304688 Z M 150.367188 218.117188 C 150.699219 220.132812 150.871094 222.199219 150.871094 224.308594 C 150.871094 238.707031 151.011719 240.023438 150.363281 243.957031 C 158.636719 243.957031 163.796875 237.761719 163.796875 231.078125 L 163.796875 231 C 163.796875 224.402344 158.738281 218.121094 150.363281 218.121094 Z M 150.367188 218.117188 " />
</g><g id="Id_Card_free_icon_lB46UBE-7"><path style=" stroke:none;fill-rule:nonzero;fill:#fdc165;fill-opacity:1;" d="M 104.269531 190.707031 C 104.742188 195.0625 108.421875 198.363281 112.804688 198.363281 C 117.164062 198.363281 120.863281 195.082031 121.339844 190.707031 L 124.253906 163.941406 L 124.25 163.941406 C 124.367188 162.859375 123.644531 161.863281 122.578125 161.640625 C 116.132812 160.285156 109.476562 160.285156 103.027344 161.640625 C 101.960938 161.863281 101.238281 162.859375 101.355469 163.941406 Z M 104.269531 190.707031 " />
</g><g id="Id_Card_free_icon_lB46UBE-8"><path style=" stroke:none;fill-rule:nonzero;fill:#fcb341;fill-opacity:1;" d="M 123.941406 166.796875 L 121.339844 190.707031 C 120.863281 195.0625 117.183594 198.359375 112.804688 198.359375 C 108.421875 198.359375 104.742188 195.0625 104.269531 190.707031 L 101.667969 166.796875 C 91.132812 169.703125 82.148438 177.363281 77.484375 184.675781 C 73.3125 191.21875 70.988281 199.039062 70.988281 208.222656 L 154.621094 208.222656 C 154.621094 199.042969 152.292969 190.640625 147.265625 183.386719 C 142.941406 177.144531 134.535156 169.71875 123.941406 166.796875 Z M 123.941406 166.796875 " />
</g><g id="Id_Card_free_icon_lB46UBE-9"><path style=" stroke:none;fill-rule:nonzero;fill:#feb09e;fill-opacity:1;" d="M 112.9375 275.691406 L 112.679688 275.691406 C 108.175781 275.695312 103.710938 274.894531 99.488281 273.332031 L 99.488281 282.765625 C 99.488281 290.125 105.457031 296.09375 112.816406 296.09375 C 120.175781 296.09375 126.144531 290.125 126.144531 282.765625 L 126.144531 273.328125 C 121.917969 274.894531 117.445312 275.695312 112.9375 275.691406 Z M 112.9375 275.691406 " />
</g><g id="Id_Card_free_icon_lB46UBE-10"><path style=" stroke:none;fill-rule:nonzero;fill:#fdc165;fill-opacity:1;" d="M 159.652344 208.222656 L 65.957031 208.222656 C 63.257812 208.222656 61.070312 210.40625 61.070312 213.105469 L 61.070312 213.234375 C 61.070312 215.933594 63.257812 218.117188 65.957031 218.117188 L 159.652344 218.117188 C 160.945312 218.117188 162.1875 217.605469 163.105469 216.6875 C 164.019531 215.773438 164.535156 214.53125 164.535156 213.234375 L 164.535156 213.105469 C 164.535156 210.40625 162.347656 208.222656 159.652344 208.222656 Z M 84.996094 197.503906 L 74.085938 180.890625 L 74.089844 180.890625 C 72.585938 178.605469 73.222656 175.535156 75.507812 174.035156 C 77.792969 172.535156 80.859375 173.171875 82.359375 175.457031 L 93.269531 192.070312 C 94.769531 194.351562 94.132812 197.421875 91.851562 198.921875 C 89.566406 200.421875 86.496094 199.785156 84.996094 197.503906 Z M 84.996094 197.503906 " />
</g><g id="Id_Card_free_icon_lB46UBE-11"><path style=" stroke:none;fill-rule:nonzero;fill:#5a5a5b;fill-opacity:1;" d="M 94.222656 242.925781 C 92.730469 242.925781 91.300781 242.335938 90.242188 241.277344 C 89.1875 240.222656 88.597656 238.792969 88.597656 237.300781 L 88.597656 233.46875 C 88.597656 230.363281 91.117188 227.84375 94.222656 227.84375 C 97.328125 227.84375 99.847656 230.363281 99.847656 233.46875 L 99.847656 237.300781 C 99.847656 238.792969 99.253906 240.222656 98.199219 241.277344 C 97.144531 242.332031 95.714844 242.925781 94.222656 242.925781 Z M 131.402344 242.925781 C 129.910156 242.925781 128.480469 242.335938 127.425781 241.277344 C 126.371094 240.222656 125.777344 238.792969 125.777344 237.300781 L 125.777344 233.46875 C 125.777344 230.363281 128.296875 227.84375 131.402344 227.84375 C 134.507812 227.84375 137.027344 230.363281 137.027344 233.46875 L 137.027344 237.300781 C 137.027344 240.40625 134.507812 242.925781 131.402344 242.925781 Z M 131.402344 242.925781 " />
</g><g id="Id_Card_free_icon_lB46UBE-12"><path style=" stroke:none;fill-rule:nonzero;fill:#feb09e;fill-opacity:1;" d="M 150.367188 218.117188 L 142.867188 218.117188 C 143.511719 222.039062 143.371094 223.347656 143.371094 237.753906 C 143.371094 257.484375 128.308594 273.6875 109.058594 275.511719 C 110.25 275.625 111.457031 275.6875 112.679688 275.6875 L 112.9375 275.6875 C 133.886719 275.6875 150.871094 258.703125 150.871094 237.753906 C 150.871094 223.347656 151.011719 222.039062 150.367188 218.117188 Z M 150.367188 218.117188 " />
</g><g id="Id_Card_free_icon_lB46UBE-13"><path style=" stroke:none;fill-rule:nonzero;fill:#f5ab31;fill-opacity:1;" d="M 147.265625 183.382812 C 142.941406 177.140625 134.535156 169.714844 123.941406 166.792969 L 123.636719 169.589844 C 130.816406 173.203125 136.472656 178.632812 139.765625 183.382812 C 144.792969 190.636719 147.121094 199.039062 147.121094 208.21875 L 154.621094 208.21875 C 154.621094 199.039062 152.296875 190.636719 147.265625 183.382812 Z M 147.265625 183.382812 " />
</g><g id="Id_Card_free_icon_lB46UBE-14"><path style=" stroke:none;fill-rule:nonzero;fill:#fdc165;fill-opacity:1;" d="M 133.585938 198.8125 C 131.300781 197.3125 130.667969 194.242188 132.167969 191.957031 L 143.078125 175.34375 L 143.074219 175.347656 C 144.578125 173.0625 147.644531 172.425781 149.929688 173.925781 C 152.214844 175.425781 152.847656 178.496094 151.347656 180.777344 L 140.4375 197.390625 C 139.71875 198.488281 138.59375 199.253906 137.308594 199.523438 C 136.023438 199.789062 134.683594 199.53125 133.585938 198.8125 Z M 133.585938 198.8125 " />
</g><g id="Id_Card_free_icon_lB46UBE-15"><path style=" stroke:none;fill-rule:nonzero;fill:#fcb341;fill-opacity:1;" d="M 147.609375 283.425781 L 140.109375 283.425781 C 146.605469 283.425781 151.871094 288.691406 151.871094 295.1875 L 151.871094 320.6875 L 159.371094 320.6875 L 159.371094 295.1875 C 159.371094 288.691406 154.105469 283.425781 147.609375 283.425781 Z M 147.609375 283.425781 " />
</g><g id="Id_Card_free_icon_lB46UBE-16"><path style=" stroke:none;fill-rule:nonzero;fill:#7aabdf;fill-opacity:1;" d="M 79.921875 299.15625 L 145.707031 299.15625 L 145.707031 320.6875 L 79.921875 320.6875 Z M 79.921875 299.15625 " />
</g><g id="Id_Card_free_icon_lB46UBE-17"><path style=" stroke:none;fill-rule:nonzero;fill:#97bbe6;fill-opacity:1;" d="M 79.921875 283.425781 L 91.171875 283.425781 L 91.171875 299.15625 L 79.921875 299.15625 Z M 134.457031 283.425781 L 145.707031 283.425781 L 145.707031 299.15625 L 134.457031 299.15625 Z M 134.457031 283.425781 " />
</g><g id="Id_Card_free_icon_lB46UBE-18"><path style=" stroke:none;fill-rule:nonzero;fill:#9c9c9d;fill-opacity:1;" d="M 359.625 96.53125 L 340.125 96.53125 C 348.757812 96.53125 356.351562 101.046875 360.683594 107.835938 C 367.425781 108.378906 372.75 114.027344 372.75 120.90625 L 372.75 346.03125 C 372.75 352.910156 367.425781 358.5625 360.683594 359.101562 C 356.351562 365.890625 348.757812 370.40625 340.125 370.40625 L 359.625 370.40625 C 373.066406 370.40625 384 359.472656 384 346.03125 L 384 120.90625 C 384 107.464844 373.066406 96.53125 359.625 96.53125 Z M 359.625 96.53125 " />
</g><g id="Id_Card_free_icon_lB46UBE-19"><path style=" stroke:none;fill-rule:nonzero;fill:#ababac;fill-opacity:1;" d="M 360.683594 359.101562 C 360.332031 359.136719 359.976562 359.152344 359.625 359.15625 L 24.375 359.15625 C 17.136719 359.15625 11.25 353.269531 11.25 346.03125 L 11.25 120.90625 C 11.25 113.667969 17.136719 107.78125 24.375 107.78125 L 359.625 107.78125 C 359.984375 107.78125 360.332031 107.808594 360.683594 107.835938 C 356.351562 101.046875 348.757812 96.53125 340.125 96.53125 L 24.375 96.53125 C 10.933594 96.53125 0 107.464844 0 120.90625 L 0 346.03125 C 0 359.472656 10.933594 370.40625 24.375 370.40625 L 340.125 370.40625 C 348.757812 370.40625 356.351562 365.890625 360.683594 359.101562 Z M 360.683594 359.101562 " />
</g><g id="Id_Card_free_icon_lB46UBE-20"><path style=" stroke:none;fill-rule:nonzero;fill:#cececf;fill-opacity:1;" d="M 203.730469 13.59375 L 169.769531 13.59375 C 165.160156 13.59375 161.464844 18.140625 161.601562 23.640625 L 164.296875 133.101562 C 164.378906 136.492188 166.707031 139.1875 169.542969 139.1875 L 203.957031 139.1875 C 206.796875 139.1875 209.121094 136.492188 209.203125 133.101562 L 211.898438 23.640625 C 212.035156 18.140625 208.335938 13.59375 203.730469 13.59375 Z M 203.730469 13.59375 " />
</g><g id="Id_Card_free_icon_lB46UBE-21"><path style=" stroke:none;fill-rule:nonzero;fill:#bfbfb0;fill-opacity:1;" d="M 214.230469 13.59375 L 194.730469 13.59375 C 199.339844 13.59375 203.035156 18.140625 202.898438 23.640625 L 200.203125 133.101562 C 200.121094 136.492188 197.792969 139.1875 194.957031 139.1875 L 214.457031 139.1875 C 217.296875 139.1875 219.621094 136.492188 219.703125 133.101562 L 222.398438 23.640625 C 222.535156 18.140625 218.835938 13.59375 214.230469 13.59375 Z M 214.230469 13.59375 " />
</g></g>
</svg>